<?xml version="1.0" standalone="no"?>
<!DOCTYPE svg PUBLIC "-//W3C//DTD SVG 20010904//EN"
 "http://www.w3.org/TR/2001/REC-SVG-20010904/DTD/svg10.dtd">
<svg version="1.0" xmlns="http://www.w3.org/2000/svg"
 width="300.000000pt" height="300.000000pt" viewBox="0 0 300.000000 300.000000"
 preserveAspectRatio="xMidYMid meet">
<metadata>
Created by potrace 1.11, written by Peter Selinger 2001-2013
</metadata>
<g transform="translate(0.000000,300.000000) scale(0.100000,-0.100000)"
fill="#000000" stroke="none">
<path d="M723 2260 c-186 -49 -342 -180 -432 -364 -132 -271 -131 -654 2 -911
109 -209 311 -328 582 -342 167 -8 253 17 400 116 33 23 65 41 72 41 20 0 51
-48 58 -90 5 -29 12 -40 25 -40 16 0 18 19 22 278 5 318 7 328 76 352 28 10
42 20 42 32 0 17 -18 18 -275 18 -265 0 -275 -1 -275 -19 0 -16 9 -21 48 -26
117 -14 159 -45 173 -132 10 -59 11 -288 3 -332 -20 -101 -194 -170 -376 -150
-306 35 -447 270 -449 749 -1 316 59 522 193 666 90 95 155 127 279 132 157 7
285 -43 384 -149 57 -62 85 -123 111 -238 8 -37 17 -76 19 -88 4 -16 13 -23
30 -23 l25 0 0 203 c0 111 3 226 7 255 l6 54 -29 -4 c-25 -3 -29 -8 -36 -45
-9 -53 -25 -83 -44 -83 -8 0 -41 17 -72 39 -79 53 -152 89 -219 106 -82 21
-259 19 -350 -5z"/>
<path d="M2131 2269 c-67 -13 -162 -62 -204 -105 -110 -111 -136 -308 -62
-460 53 -108 143 -184 405 -344 123 -76 231 -174 268 -245 23 -43 27 -63 27
-135 0 -73 -4 -93 -28 -142 -51 -103 -138 -151 -272 -150 -187 3 -313 119
-369 343 -9 36 -16 76 -16 90 0 48 -11 69 -36 69 l-24 0 0 -219 c0 -120 -3
-239 -6 -265 l-7 -46 32 0 c24 0 31 4 31 20 0 10 5 31 12 45 15 34 49 32 112
-6 76 -47 151 -70 251 -76 181 -11 328 38 424 142 73 80 95 144 95 275 0 219
-67 301 -433 531 -212 133 -266 177 -306 250 -26 47 -30 64 -30 134 0 88 19
137 72 187 80 76 226 96 333 47 110 -52 187 -164 217 -317 15 -75 18 -82 40
-82 23 0 23 1 23 113 0 61 3 163 7 225 l6 112 -24 0 c-20 0 -27 -8 -39 -42
-20 -58 -44 -60 -130 -9 -37 22 -94 48 -126 56 -63 16 -172 18 -243 4z"/>
</g>
</svg>
